<svg xmlns="http://www.w3.org/2000/svg" xmlns:xlink="http://www.w3.org/1999/xlink" width="500" zoomAndPan="magnify" viewBox="0 0 375 374.999991" height="500" preserveAspectRatio="xMidYMid meet" version="1.0"><defs><clipPath id="fd9b4a414a"><path d="M 97.566406 145 L 202 145 L 202 199 L 97.566406 199 Z M 97.566406 145 " clip-rule="nonzero"/></clipPath><clipPath id="f2b5677d44"><path d="M 97.566406 141 L 208 141 L 208 184 L 97.566406 184 Z M 97.566406 141 " clip-rule="nonzero"/></clipPath><clipPath id="a32699e0b4"><path d="M 176 97.566406 L 230 97.566406 L 230 202 L 176 202 Z M 176 97.566406 " clip-rule="nonzero"/></clipPath><clipPath id="a7796c269c"><path d="M 191 97.566406 L 234 97.566406 L 234 208 L 191 208 Z M 191 97.566406 " clip-rule="nonzero"/></clipPath><clipPath id="75e9460ba0"><path d="M 173 176 L 277.566406 176 L 277.566406 230 L 173 230 Z M 173 176 " clip-rule="nonzero"/></clipPath><clipPath id="1d7d29ccb6"><path d="M 167 191 L 277.566406 191 L 277.566406 234 L 167 234 Z M 167 191 " clip-rule="nonzero"/></clipPath><clipPath id="88ec03c859"><path d="M 145 173 L 199 173 L 199 277.566406 L 145 277.566406 Z M 145 173 " clip-rule="nonzero"/></clipPath><clipPath id="395b0331cf"><path d="M 141 167 L 184 167 L 184 277.566406 L 141 277.566406 Z M 141 167 " clip-rule="nonzero"/></clipPath></defs><path fill="#7c3aed" d="M 100.835938 212.320312 C 109.933594 168.148438 150.382812 140.65625 194.367188 148.566406 C 151.183594 142.21875 112.226562 169.773438 104.742188 213.058594 Z M 100.835938 212.320312 " fill-opacity="1" fill-rule="nonzero"/><g clip-path="url(#fd9b4a414a)"><path fill="#7c3aed" d="M 97.84375 196.894531 C 114.472656 154.972656 159.082031 134.921875 201.027344 150.347656 C 159.601562 136.601562 116.445312 156.96875 101.5625 198.300781 Z M 97.84375 196.894531 " fill-opacity="1" fill-rule="nonzero"/></g><g clip-path="url(#f2b5677d44)"><path fill="#7c3aed" d="M 97.574219 181.179688 C 121.230469 142.785156 168.644531 130.785156 207.273438 153.261719 C 168.863281 132.527344 122.828125 145.09375 100.992188 183.214844 Z M 97.574219 181.179688 " fill-opacity="1" fill-rule="nonzero"/></g><path fill="#7c3aed" d="M 100.039062 165.660156 C 130.003906 131.957031 178.78125 128.371094 212.917969 157.214844 C 178.691406 130.125 131.175781 134.507812 103.050781 168.253906 Z M 100.039062 165.660156 " fill-opacity="1" fill-rule="nonzero"/><path fill="#7c3aed" d="M 105.160156 150.804688 C 140.523438 122.816406 189.179688 127.757812 217.792969 162.085938 C 188.789062 129.46875 141.234375 125.53125 107.675781 153.882812 Z M 105.160156 150.804688 " fill-opacity="1" fill-rule="nonzero"/><path fill="#7c3aed" d="M 112.78125 137.0625 C 152.46875 115.640625 199.53125 128.957031 221.746094 167.734375 C 198.847656 130.574219 152.699219 118.441406 114.726562 140.53125 Z M 112.78125 137.0625 " fill-opacity="1" fill-rule="nonzero"/><path fill="#7c3aed" d="M 122.675781 124.855469 C 165.480469 110.648438 209.515625 131.933594 224.65625 173.980469 C 208.5625 133.410156 165.21875 113.445312 123.988281 128.609375 Z M 122.675781 124.855469 " fill-opacity="1" fill-rule="nonzero"/><path fill="#7c3aed" d="M 134.539062 114.550781 C 179.160156 107.992188 218.828125 136.601562 226.441406 180.636719 C 217.632812 137.886719 178.417969 110.699219 135.183594 118.476562 Z M 134.539062 114.550781 " fill-opacity="1" fill-rule="nonzero"/><path fill="#7c3aed" d="M 148.015625 106.460938 C 193.09375 107.753906 227.195312 142.8125 227.042969 187.503906 C 225.792969 143.871094 191.894531 110.289062 147.964844 110.4375 Z M 148.015625 106.460938 " fill-opacity="1" fill-rule="nonzero"/><path fill="#7c3aed" d="M 162.6875 100.835938 C 206.855469 109.933594 234.351562 150.382812 226.441406 194.367188 C 232.789062 151.183594 205.234375 112.226562 161.945312 104.742188 Z M 162.6875 100.835938 " fill-opacity="1" fill-rule="nonzero"/><g clip-path="url(#a32699e0b4)"><path fill="#7c3aed" d="M 178.113281 97.84375 C 220.03125 114.472656 240.085938 159.082031 224.65625 201.027344 C 238.40625 159.601562 218.035156 116.445312 176.707031 101.5625 Z M 178.113281 97.84375 " fill-opacity="1" fill-rule="nonzero"/></g><g clip-path="url(#a7796c269c)"><path fill="#7c3aed" d="M 193.824219 97.574219 C 232.21875 121.230469 244.222656 168.644531 221.746094 207.273438 C 242.476562 168.863281 229.910156 122.828125 191.792969 100.992188 Z M 193.824219 97.574219 " fill-opacity="1" fill-rule="nonzero"/></g><path fill="#7c3aed" d="M 209.34375 100.039062 C 243.046875 130.003906 246.632812 178.78125 217.792969 212.917969 C 244.878906 178.691406 240.496094 131.175781 206.75 103.050781 Z M 209.34375 100.039062 " fill-opacity="1" fill-rule="nonzero"/><path fill="#7c3aed" d="M 224.203125 105.160156 C 252.1875 140.523438 247.25 189.179688 212.917969 217.792969 C 245.539062 188.789062 249.472656 141.234375 221.121094 107.675781 Z M 224.203125 105.160156 " fill-opacity="1" fill-rule="nonzero"/><path fill="#7c3aed" d="M 237.945312 112.78125 C 259.363281 152.46875 246.050781 199.53125 207.273438 221.746094 C 244.433594 198.847656 256.566406 152.699219 234.472656 114.726562 Z M 237.945312 112.78125 " fill-opacity="1" fill-rule="nonzero"/><path fill="#7c3aed" d="M 250.152344 122.675781 C 264.355469 165.480469 243.074219 209.515625 201.027344 224.65625 C 241.597656 208.5625 261.5625 165.21875 246.398438 123.988281 Z M 250.152344 122.675781 " fill-opacity="1" fill-rule="nonzero"/><path fill="#7c3aed" d="M 260.457031 134.539062 C 267.011719 179.160156 238.40625 218.828125 194.367188 226.441406 C 237.121094 217.632812 264.304688 178.417969 256.53125 135.183594 Z M 260.457031 134.539062 " fill-opacity="1" fill-rule="nonzero"/><path fill="#7c3aed" d="M 268.546875 148.015625 C 267.253906 193.09375 232.195312 227.195312 187.503906 227.042969 C 231.132812 225.792969 264.714844 191.894531 264.570312 147.964844 Z M 268.546875 148.015625 " fill-opacity="1" fill-rule="nonzero"/><path fill="#7c3aed" d="M 274.171875 162.6875 C 265.070312 206.855469 224.621094 234.351562 180.636719 226.441406 C 223.820312 232.789062 262.78125 205.234375 270.265625 161.945312 Z M 274.171875 162.6875 " fill-opacity="1" fill-rule="nonzero"/><g clip-path="url(#75e9460ba0)"><path fill="#7c3aed" d="M 277.164062 178.113281 C 260.53125 220.03125 215.921875 240.085938 173.980469 224.65625 C 215.40625 238.40625 258.558594 218.035156 273.445312 176.707031 Z M 277.164062 178.113281 " fill-opacity="1" fill-rule="nonzero"/></g><g clip-path="url(#1d7d29ccb6)"><path fill="#7c3aed" d="M 277.433594 193.824219 C 253.773438 232.21875 206.359375 244.222656 167.734375 221.746094 C 206.144531 242.476562 252.175781 229.910156 274.011719 191.792969 Z M 277.433594 193.824219 " fill-opacity="1" fill-rule="nonzero"/></g><path fill="#7c3aed" d="M 274.96875 209.34375 C 245.003906 243.046875 196.226562 246.632812 162.085938 217.792969 C 196.3125 244.878906 243.832031 240.496094 271.953125 206.75 Z M 274.96875 209.34375 " fill-opacity="1" fill-rule="nonzero"/><path fill="#7c3aed" d="M 269.847656 224.203125 C 234.484375 252.1875 185.824219 247.25 157.214844 212.917969 C 186.21875 245.539062 233.773438 249.472656 267.328125 221.121094 Z M 269.847656 224.203125 " fill-opacity="1" fill-rule="nonzero"/><path fill="#7c3aed" d="M 262.222656 237.941406 C 222.539062 259.363281 175.476562 246.050781 153.261719 207.273438 C 176.160156 244.433594 222.308594 256.566406 260.277344 234.472656 Z M 262.222656 237.941406 " fill-opacity="1" fill-rule="nonzero"/><path fill="#7c3aed" d="M 252.328125 250.152344 C 209.527344 264.355469 165.492188 243.074219 150.347656 201.027344 C 166.445312 241.597656 209.789062 261.5625 251.015625 246.398438 Z M 252.328125 250.152344 " fill-opacity="1" fill-rule="nonzero"/><path fill="#7c3aed" d="M 240.464844 260.457031 C 195.847656 267.011719 156.175781 238.40625 148.566406 194.367188 C 157.371094 237.121094 196.589844 264.304688 239.824219 256.53125 Z M 240.464844 260.457031 " fill-opacity="1" fill-rule="nonzero"/><path fill="#7c3aed" d="M 226.992188 268.546875 C 181.914062 267.253906 147.8125 232.195312 147.964844 187.503906 C 149.214844 231.132812 183.113281 264.714844 227.042969 264.570312 Z M 226.992188 268.546875 " fill-opacity="1" fill-rule="nonzero"/><path fill="#7c3aed" d="M 212.320312 274.171875 C 168.148438 265.070312 140.65625 224.621094 148.566406 180.636719 C 142.21875 223.820312 169.773438 262.78125 213.058594 270.265625 Z M 212.320312 274.171875 " fill-opacity="1" fill-rule="nonzero"/><g clip-path="url(#88ec03c859)"><path fill="#7c3aed" d="M 196.894531 277.164062 C 154.972656 260.53125 134.921875 215.921875 150.347656 173.980469 C 136.601562 215.40625 156.96875 258.558594 198.300781 273.445312 Z M 196.894531 277.164062 " fill-opacity="1" fill-rule="nonzero"/></g><g clip-path="url(#395b0331cf)"><path fill="#7c3aed" d="M 181.179688 277.433594 C 142.785156 253.773438 130.785156 206.359375 153.261719 167.734375 C 132.527344 206.144531 145.09375 252.175781 183.214844 274.011719 Z M 181.179688 277.433594 " fill-opacity="1" fill-rule="nonzero"/></g><path fill="#7c3aed" d="M 165.660156 274.96875 C 131.957031 245.003906 128.371094 196.226562 157.214844 162.085938 C 130.125 196.3125 134.507812 243.832031 168.253906 271.953125 Z M 165.660156 274.96875 " fill-opacity="1" fill-rule="nonzero"/><path fill="#7c3aed" d="M 150.804688 269.847656 C 122.816406 234.484375 127.757812 185.824219 162.085938 157.214844 C 129.46875 186.21875 125.53125 233.773438 153.882812 267.328125 Z M 150.804688 269.847656 " fill-opacity="1" fill-rule="nonzero"/><path fill="#7c3aed" d="M 137.0625 262.222656 C 115.640625 222.539062 128.957031 175.476562 167.734375 153.261719 C 130.574219 176.160156 118.4375 222.308594 140.53125 260.277344 Z M 137.0625 262.222656 " fill-opacity="1" fill-rule="nonzero"/><path fill="#7c3aed" d="M 124.855469 252.328125 C 110.648438 209.527344 131.933594 165.492188 173.980469 150.347656 C 133.410156 166.445312 113.445312 209.789062 128.609375 251.015625 Z M 124.855469 252.328125 " fill-opacity="1" fill-rule="nonzero"/><path fill="#7c3aed" d="M 114.550781 240.464844 C 107.992188 195.847656 136.601562 156.175781 180.636719 148.566406 C 137.886719 157.371094 110.699219 196.589844 118.476562 239.824219 Z M 114.550781 240.464844 " fill-opacity="1" fill-rule="nonzero"/><path fill="#7c3aed" d="M 106.460938 226.992188 C 107.753906 181.914062 142.8125 147.8125 187.503906 147.964844 C 143.871094 149.214844 110.289062 183.113281 110.4375 227.042969 Z M 106.460938 226.992188 " fill-opacity="1" fill-rule="nonzero"/></svg>